HIERARCHY
ROOT Hips
{
  OFFSET -102.467 93.6631 130.069
  CHANNELS 6 Xposition Yposition Zposition Zrotation Xrotation Yrotation
  JOINT LeftUpLeg
  {
    OFFSET 8.64259 1.95398 -2.38835
    CHANNELS 3 Zrotation Xrotation Yrotation
    JOINT LeftLeg
    {
      OFFSET 43.7702 0 0
      CHANNELS 3 Zrotation Xrotation Yrotation
      JOINT LeftFoot
      {
        OFFSET 40.6238 0 0
        CHANNELS 3 Zrotation Xrotation Yrotation
        JOINT LeftToeBase
        {
          OFFSET 12.7242 0 0
          CHANNELS 3 Zrotation Xrotation Yrotation
          End Site
          {
            OFFSET 0 0 0
          }
        }
      }
    }
  }
  JOINT RightUpLeg
  {
    OFFSET -8.2249 1.95398 -2.59336
    CHANNELS 3 Zrotation Xrotation Yrotation
    JOINT RightLeg
    {
      OFFSET 43.5653 0 0
      CHANNELS 3 Zrotation Xrotation Yrotation
      JOINT RightFoot
      {
        OFFSET 40.6238 0 0
        CHANNELS 3 Zrotation Xrotation Yrotation
        JOINT RightToeBase
        {
          OFFSET 12.7242 0 0
          CHANNELS 3 Zrotation Xrotation Yrotation
          End Site
          {
            OFFSET 0 0 0
          }
        }
      }
    }
  }
  JOINT Spine
  {
    OFFSET 0.165834 0.87714 6.61349
    CHANNELS 3 Zrotation Xrotation Yrotation
    JOINT Spine1
    {
      OFFSET 7.38963 1.71661e-005 0
      CHANNELS 3 Zrotation Xrotation Yrotation
      JOINT Spine2
      {
        OFFSET 11.9445 1.14441e-005 0
        CHANNELS 3 Zrotation Xrotation Yrotation
        JOINT Spine3
        {
          OFFSET 14.7254 4.19617e-005 0
          CHANNELS 3 Zrotation Xrotation Yrotation
          JOINT Spine4
          {
            OFFSET 10.9679 0 0
            CHANNELS 3 Zrotation Xrotation Yrotation
            JOINT RightShoulder
            {
              OFFSET 2.46616 -1.6653 3.69651
              CHANNELS 3 Zrotation Xrotation Yrotation
              JOINT RightArm
              {
                OFFSET 13.0012 0 0
                CHANNELS 3 Zrotation Xrotation Yrotation
                JOINT RightForeArm
                {
                  OFFSET 28.7848 1.52588e-005 0
                  CHANNELS 3 Zrotation Xrotation Yrotation
                  JOINT RightHand
                  {
                    OFFSET 26.5688 1.52588e-005 0
                    CHANNELS 3 Zrotation Xrotation Yrotation
                    End Site
                    {
                      OFFSET 0 0 0
                    }
                  }
                }
              }
            }
            JOINT LeftShoulder
            {
              OFFSET 2.38034 -1.29275 -3.7523
              CHANNELS 3 Zrotation Xrotation Yrotation
              JOINT LeftArm
              {
                OFFSET 16.3182 6.10351e-005 0
                CHANNELS 3 Zrotation Xrotation Yrotation
                JOINT LeftForeArm
                {
                  OFFSET 27.0901 0 0
                  CHANNELS 3 Zrotation Xrotation Yrotation
                  JOINT LeftHand
                  {
                    OFFSET 24.5451 1.52588e-005 0
                    CHANNELS 3 Zrotation Xrotation Yrotation
                    End Site
                    {
                      OFFSET 0 0 0
                    }
                  }
                }
              }
            }
            JOINT Neck
            {
              OFFSET 5.0226 -0.0266342 0
              CHANNELS 3 Zrotation Xrotation Yrotation
              JOINT Head
              {
                OFFSET 6.69363 2.86102e-005 0
                CHANNELS 3 Zrotation Xrotation Yrotation
                End Site
                {
                  OFFSET 0 0 0
                }
              }
            }
          }
        }
      }
    }
  }
}
MOTION
Frames:	15
Frame Time:	0.0416667
248.512 101.107 -232.561 -92.7391 -59.4431 -91.7206 -176.375 -0.949716 88.8837 -8.56137 18.8167 2.7905 57.8557 3.79407 12.1711 40.6134 -1.39594 -0.0791893 175.117 4.29073 90.0161 -20.0563 -8.11579 0.998891 65.6501 1.56897 7.47565 31.1508 -0.597045 -0.184605 -0.522131 7.46837 -90.0336 11.9378 -1.05389 0.0468242 0.267289 -1.05081 0.0931639 -22.2711 -1.01927 -0.272119 -2.25849 -1.01924 -0.272123 100.583 -54.1931 -84.5164 9.78631 -39.6929 -26.9452 18.1079 21.5779 0.0104034 -26.1834 1.20857 -10.5345 -82.27 -53.6298 90.4228 -28.9891 7.61546 -17.1432 9.86212 35.1008 -17.1992 -2.29773 -0.087763 -0.119155 4.24827 -0.353102 -25.7301 -19.3092 1.15838 22.99 
248.256 101.076 -232.49 -92.5579 -59.2927 -91.9273 -176.115 -1.04852 88.7671 -8.40979 18.9097 2.40987 58.2726 4.38236 13.0294 39.1381 -1.55138 -2.15514 174.863 4.30922 89.657 -20.3661 -6.90401 1.00881 67.2742 1.33749 8.90873 28.3102 0.130297 0.139447 -0.488801 7.49945 -90.0037 11.8758 -0.973695 0.0969041 0.205197 -0.968486 0.139664 -22.3328 -0.957792 -0.200236 -2.32017 -0.957785 -0.200237 100.042 -54.3964 -85.3107 11.1007 -38.1745 -25.3994 16.4768 18.5143 -0.199941 -24.3382 0.847487 -9.26459 -82.708 -53.3935 89.7658 -29.0152 7.96987 -17.6332 9.28576 34.1275 -16.8824 -1.88072 -0.070901 0.223307 5.40728 -0.4452 -25.8887 -19.9993 1.13557 23.5664 
248.112 101.195 -232.394 -92.8132 -59.5912 -92.2547 -176.138 -1.20664 88.7856 -8.42676 18.9412 2.44762 58.4056 4.20575 12.2817 39.5252 -1.50125 -1.55289 175.109 4.54728 89.7287 -20.7904 -6.06796 0.678043 65.2621 3.12011 8.95135 30.0403 0.0626451 2.46055 -0.519134 7.51598 -90.0063 11.8428 -1.03525 0.0979784 0.172232 -1.02994 0.14344 -22.3661 -1.01684 -0.217727 -2.35349 -1.01684 -0.217731 99.8689 -54.2204 -85.5736 12.6708 -37.2815 -23.4884 15.1949 16.5804 -1.74442 -22.5761 0.382212 -7.23233 -82.3787 -53.4066 90.2477 -29.1973 8.10876 -17.8924 9.57416 34.1765 -17.3098 -1.823 -0.0690635 0.105854 6.87475 -0.158282 -25.3769 -21.2363 1.34102 23.867 
248.041 101.261 -232.277 -92.9411 -59.8283 -92.1982 -176.073 -1.37602 88.9189 -8.43864 19.389 2.52498 58.2795 4.23266 12.7003 39.2315 -1.45699 -1.50308 175.514 4.36503 89.9358 -20.8893 -0.0351264 -0.0191021 65.7289 5.70628 14.5885 25.5329 1.54257 5.89142 -0.532724 7.51166 -90.0481 11.8512 -1.08198 0.0196559 0.180678 -1.08007 0.0672448 -22.3579 -1.03787 -0.306474 -2.34523 -1.03785 -0.306467 99.9158 -54 -85.513 13.957 -36.5137 -21.6036 13.8848 14.5472 -3.71289 -20.5954 0.223622 -6.51207 -82.2419 -53.6559 90.4658 -29.25 7.92964 -17.8977 10.0771 34.7031 -17.8238 -2.43069 -0.0926549 0.144993 8.06324 0.332321 -24.2839 -22.2894 1.70188 23.4012 
247.988 101.215 -232.269 -93.1433 -59.6733 -92.3877 -175.915 -1.5188 88.9817 -8.41238 19.2387 2.41189 58.4642 4.47207 12.9329 39.3313 -1.54161 -1.93907 175.201 4.10938 89.8146 -20.8114 0.0149675 0.277843 66.6275 5.14109 14.5291 24.3655 1.73968 5.83795 -0.503408 7.49845 -90.0649 11.8773 -1.03153 -0.0188352 0.206774 -1.03135 0.0265789 -22.3314 -0.978178 -0.328008 -2.31878 -0.978176 -0.328021 99.9378 -53.7351 -85.4908 15.3592 -35.895 -19.6435 12.9276 13.5243 -6.01775 -21.6964 -0.0604811 -4.91262 -82.4792 -54.038 90.1503 -29.001 7.90396 -17.8422 9.89027 34.7907 -17.5809 -2.36421 -0.0902362 -0.172485 8.23162 1.01364 -23.5797 -22.4839 2.2125 23.4086 
247.995 101.184 -232.304 -92.917 -59.5584 -92.4266 -176.061 -1.41915 88.7545 -8.33465 18.7198 2.38372 58.5633 4.28809 12.2977 39.5438 -1.47264 -1.33539 175.171 4.41005 89.643 -21.0995 -0.477586 0.247098 66.7277 4.87326 13.9712 25.0396 1.60268 5.71252 -0.487821 7.47969 -90.0562 11.9149 -0.996398 -0.00474792 0.244312 -0.99565 0.0391046 -22.2937 -0.948926 -0.304023 -2.28106 -0.948904 -0.30402 100.301 -53.8198 -84.9475 15.8536 -35.7867 -18.3192 12.4584 12.9759 -8.48767 -25.309 -0.521446 -2.83736 -82.3869 -54.3805 90.3097 -28.5215 8.38355 -17.6595 9.00932 33.2327 -17.1699 -2.56462 -0.0958695 -1.61445 8.85444 1.61142 -22.6945 -22.7925 2.70137 23.202 
247.964 101.194 -232.351 -93.2702 -59.6701 -92.6599 -175.981 -1.57318 88.8864 -8.37613 18.8359 2.41278 58.6227 4.13782 11.6996 39.779 -1.30134 -0.151058 175.438 4.39889 89.8843 -21.3728 -0.0840725 -0.00012115 66.3929 5.14835 14.1842 25.577 1.44622 5.25639 -0.505811 7.48518 -90.064 11.9039 -1.03594 -0.0161134 0.233357 -1.03563 0.0294922 -22.3049 -0.983188 -0.326742 -2.29223 -0.983198 -0.326747 100.283 -53.9236 -84.9706 16.9517 -35.3264 -16.5984 10.9752 11.5098 -9.80682 -19.7934 -0.353929 -3.14639 -82.3326 -53.9889 90.3587 -29.0649 7.85433 -17.5815 9.58988 34.9438 -17.0266 -2.33305 -0.0925042 0.150718 9.15368 2.19176 -22.2085 -23.0022 3.19099 23.1322 
247.755 101.162 -232.37 -93.8426 -59.9104 -93.3863 -176.148 -1.89549 88.7593 -8.42367 18.9845 2.55386 58.5523 4.06486 11.6574 40.3956 -1.33237 0.145709 175.317 4.10073 89.7786 -21.5575 0.714028 -0.0073441 66.8561 5.01937 14.2703 25.0059 1.68564 6.34781 -0.533389 7.53949 -90.0805 11.7952 -1.09862 -0.0441297 0.124729 -1.09948 0.00425557 -22.4138 -1.03456 -0.372303 -2.40119 -1.03455 -0.372306 100.649 -53.6324 -84.4333 17.6698 -34.7268 -15.727 10.35 11.1088 -10.8832 -20.079 -0.453157 -2.60909 -82.5696 -54.2873 90.039 -28.9265 7.50462 -17.7744 9.1464 34.8145 -16.1572 -2.57261 -0.0964348 -0.791014 10.4174 2.7032 -20.5048 -23.7379 3.5945 21.9212 
247.093 101.163 -232.153 -93.7258 -60.6012 -93.5891 -176.051 -2.03514 88.7826 -8.52921 19.7552 2.48951 58.9018 4.89567 13.0696 40.3241 -1.63834 -1.71444 175.47 3.85304 89.8286 -21.7109 1.54505 -0.25613 66.9349 5.82418 15.2426 24.8752 1.63381 5.72428 -0.635494 7.5261 -90.0764 11.8223 -1.29971 -0.0139698 0.151984 -1.29905 0.0432485 -22.388 -1.2354 -0.404003 -2.37537 -1.23541 -0.404 100.558 -53.3933 -84.5756 19.6918 -32.9383 -14.2401 9.21964 9.36345 -10.9068 -19.884 -0.525509 -2.15614 -82.2848 -54.137 90.4392 -29.0623 7.53242 -17.3586 9.07921 34.2265 -16.2616 -1.98541 -0.0788207 -0.906158 11.3074 3.43052 -18.6145 -24.4147 4.12152 20.5728 
246.586 101.074 -232.016 -93.3376 -60.3913 -92.9841 -176.023 -1.98486 89.1599 -8.80245 19.6716 2.74557 58.8247 4.65252 12.105 41.5485 -1.34347 0.852035 175.993 4.15882 90.4916 -22.2997 0.267455 -0.497607 66.4014 5.78839 14.4403 26.8447 1.13479 4.72483 -0.638732 7.52215 -90.1319 11.8295 -1.33211 -0.121072 0.159244 -1.33613 -0.0623147 -22.3808 -1.23413 -0.515882 -2.3681 -1.23414 -0.515887 100.075 -54.0241 -85.276 20.9663 -30.447 -12.853 7.8939 6.81012 -9.94347 -19.0504 -0.355247 -3.06546 -82.2027 -54.0794 90.554 -28.9663 7.11957 -16.7966 9.22307 33.5719 -16.5173 -2.54639 -0.0950189 -1.5417 12.0701 3.76474 -17.5454 -24.4957 4.28728 20.5833 
245.959 100.823 -231.692 -92.9881 -59.9316 -93.1173 -177.099 -2.29358 88.0165 -8.48447 17.7137 3.16515 58.4344 5.65803 12.5907 42.6436 -1.46485 0.86554 175.452 4.79466 89.9795 -24.0391 -1.06357 -0.0698337 67.75 4.89706 13.3282 26.5004 1.34127 5.74462 -0.618362 7.51867 -90.1114 11.8367 -1.28203 -0.0852426 0.16634 -1.28455 -0.0287196 -22.3734 -1.19715 -0.466663 -2.36072 -1.19715 -0.46666 99.9377 -53.9653 -85.4819 23.1786 -27.1894 -11.9066 6.50441 2.91618 -8.84566 -19.2927 -0.500138 -2.22222 -81.8592 -53.7078 91.0264 -29.4382 6.62258 -15.9751 10.0091 33.4735 -17.4149 -3.09802 -0.102557 -2.31844 13.5712 3.84106 -16.0224 -25.4301 4.15633 19.8404 
245.26 100.017 -231.285 -93.9255 -59.3571 -94.248 -179.095 1.61061 89.3041 -17.4818 14.7132 2.88849 58.9059 7.98151 13.821 48.8893 -1.34276 4.14312 174.791 5.45125 89.2963 -27.5686 -2.54483 0.366796 70.5425 4.77028 14.1834 26.2382 1.25915 4.77755 -0.473962 7.6279 -90.1727 11.6173 -1.02368 -0.237928 -0.0532342 -1.03317 -0.192651 -22.5909 -0.904843 -0.534616 -2.57823 -0.904838 -0.534614 100.296 -52.894 -84.9847 26.0422 -22.6708 -11.0556 4.50503 -1.48223 -8.24295 -16.4461 -0.472043 -1.867 -81.7942 -54.5528 91.1774 -29.0356 6.39453 -15.8092 10.4922 32.9836 -18.3104 -3.41642 -0.113276 -1.8524 16.2905 3.90836 -11.432 -27.1874 3.963 15.0383 
244.26 98.8862 -230.745 -95.2037 -59.5477 -95.0875 -179.612 12.1242 88.0917 -38.7123 8.50205 3.1652 58.9009 5.54955 6.94988 52.3508 -0.339962 8.83366 174.664 5.85606 89.5622 -31.8758 -1.88095 0.48008 74.6639 5.19663 15.9342 23.308 1.83765 4.99367 -0.287182 7.81254 -90.2598 11.2473 -0.692344 -0.448872 -0.423502 -0.711399 -0.417979 -22.959 -0.525422 -0.636202 -2.94633 -0.525425 -0.636199 99.5886 -53.1564 -86.0378 28.1282 -17.3824 -9.07266 1.42193 -8.41817 -10.0538 -16.0568 -0.726656 0.0650433 -81.996 -55.0356 90.9195 -28.3188 6.42445 -15.7181 11.2712 32.0493 -19.8704 -4.55451 -0.149304 -1.28218 16.835 1.91018 -10.9726 -24.3866 2.08762 16.2801 
242.847 98.3947 -229.407 -96.4278 -58.7807 -96.6853 -177.681 20.321 87.414 -50.3966 8.79926 1.92097 59.082 6.40343 9.44574 51.4696 1.14248 14.0686 173.918 4.51243 88.6833 -33.2204 -2.31977 0.778198 76.7503 4.97904 16.2558 24.9201 1.57431 5.2743 0.00572725 7.98659 -90.2631 10.901 -0.110239 -0.513314 -0.770071 -0.132738 -0.507969 -23.3045 0.0491379 -0.522711 -3.29182 0.0491103 -0.522719 99.6163 -52.6377 -86.0205 29.5648 -14.1056 -7.58312 -2.04155 -14.1051 -14.0897 -13.9716 -1.11148 4.0881 -82.3639 -55.9212 90.4569 -27.5133 6.73971 -14.4259 11.5357 31.2592 -21.4747 -4.88727 -0.145355 -1.87042 16.8598 0.767243 -7.5694 -23.6901 0.781128 12.3628 
241.383 98.536 -227.545 -95.6223 -58.0673 -97.4934 -176.232 23.9346 85.7703 -41.8215 6.70267 0.228281 58.3721 4.98192 7.98883 47.7671 -0.402684 7.85556 173.956 3.00598 87.4273 -32.1495 -0.655653 -0.11808 77.0157 5.46785 18.1275 26.8912 1.40254 6.72342 0.196916 8.03461 -90.0667 10.8046 0.361315 -0.166 -0.866302 0.35366 -0.181749 -23.4018 0.394495 -0.0497362 -3.3892 0.394493 -0.0497389 100.143 -52.6472 -85.2227 29.8467 -14.5278 -8.534 -3.41957 -16.7518 -16.0677 -14.769 -1.47131 6.52977 -83.0555 -55.5441 89.4449 -27.7823 6.01136 -12.2675 11.6883 31.8173 -21.1287 -5.60592 -0.160249 -1.93568 16.6935 0.0318989 -6.06917 -22.9636 -0.0987307 11.1656 
